<?xml version="1.0" encoding="UTF-8" standalone="no"?>
<!-- Created with Inkscape (http://www.inkscape.org/) -->

<svg
   version="1.1"
   id="svg2"
   width="2666.6667"
   height="2666.6667"
   viewBox="0 0 2666.6667 2666.6667"
   sodipodi:docname="CAC_Logo.svg"
   inkscape:version="1.2.2 (732a01da63, 2022-12-09)"
   xmlns:inkscape="http://www.inkscape.org/namespaces/inkscape"
   xmlns:sodipodi="http://sodipodi.sourceforge.net/DTD/sodipodi-0.dtd"
   xmlns="http://www.w3.org/2000/svg"
   xmlns:svg="http://www.w3.org/2000/svg">
  <defs
     id="defs6">
    <clipPath
       clipPathUnits="userSpaceOnUse"
       id="clipPath16">
      <path
         d="M 0,2000 H 2000 V 0 H 0 Z"
         id="path14" />
    </clipPath>
  </defs>
  <sodipodi:namedview
     id="namedview4"
     pagecolor="#ffffff"
     bordercolor="#000000"
     borderopacity="0.25"
     inkscape:showpageshadow="2"
     inkscape:pageopacity="0.0"
     inkscape:pagecheckerboard="0"
     inkscape:deskcolor="#d1d1d1"
     showgrid="false"
     inkscape:zoom="0.31087499"
     inkscape:cx="1696.8235"
     inkscape:cy="907.11704"
     inkscape:window-width="1920"
     inkscape:window-height="1009"
     inkscape:window-x="-1928"
     inkscape:window-y="-8"
     inkscape:window-maximized="1"
     inkscape:current-layer="g8" />
  <g
     id="g8"
     inkscape:groupmode="layer"
     inkscape:label="AI FILE"
     transform="matrix(1.3333333,0,0,-1.3333333,0,2666.6667)">
    <g
       id="g10"
       style="display:inline">
      <g
         id="g12"
         clip-path="url(#clipPath16)"
         style="display:inline">
        <g
           id="g18"
           transform="translate(999.9995,1477.668)">
          <path
             d="m 0,0 c -64.425,0 -126.995,-12.648 -185.97,-37.592 -56.897,-24.066 -107.966,-58.489 -151.792,-102.313 -43.825,-43.826 -78.248,-94.896 -102.313,-151.792 -24.944,-58.976 -37.592,-121.546 -37.592,-185.971 0,-64.425 12.648,-126.995 37.592,-185.971 24.065,-56.896 58.488,-107.965 102.313,-151.792 43.826,-43.824 94.895,-78.247 151.792,-102.313 58.975,-24.944 121.545,-37.592 185.97,-37.592 64.426,0 126.996,12.648 185.972,37.592 56.896,24.066 107.965,58.489 151.791,102.313 43.825,43.827 78.248,94.896 102.312,151.792 24.945,58.976 37.593,121.546 37.593,185.971 0,64.425 -12.648,126.995 -37.592,185.971 -24.065,56.896 -58.488,107.966 -102.313,151.792 -43.826,43.824 -94.895,78.247 -151.791,102.313 C 126.996,-12.648 64.426,0 0,0 m 0,-962.197 c -65.348,0 -128.818,12.83 -188.644,38.135 -57.714,24.411 -109.516,59.328 -153.969,103.78 -44.453,44.454 -79.371,96.257 -103.781,153.97 -25.304,59.827 -38.135,123.295 -38.135,188.644 0,65.348 12.831,128.818 38.135,188.644 24.41,57.713 59.328,109.516 103.781,153.97 44.453,44.452 96.255,79.37 153.969,103.781 C -128.818,-5.969 -65.348,6.861 0,6.861 c 65.349,0 128.819,-12.83 188.645,-38.134 57.714,-24.411 109.516,-59.329 153.969,-103.781 44.454,-44.454 79.37,-96.257 103.781,-153.97 25.304,-59.826 38.134,-123.296 38.134,-188.644 0,-65.349 -12.83,-128.817 -38.134,-188.644 -24.411,-57.713 -59.327,-109.516 -103.781,-153.97 -44.453,-44.452 -96.255,-79.369 -153.969,-103.78 C 128.819,-949.367 65.349,-962.197 0,-962.197"
             style="display:inline;fill:#29307f;fill-opacity:1;fill-rule:nonzero;stroke:none"
             id="path20"
             inkscape:label="outer circle" />
        </g>
        <g
           id="g22"
           transform="translate(1000.0005,1340.4419)">
          <path
             d="m 0,0 c -187.72,0 -340.442,-152.722 -340.442,-340.442 0,-187.72 152.722,-340.442 340.442,-340.442 187.72,0 340.441,152.722 340.441,340.442 C 340.441,-152.722 187.72,0 0,0 m 0,-687.746 c -191.503,0 -347.303,155.8 -347.303,347.304 0,191.504 155.8,347.303 347.303,347.303 191.503,0 347.302,-155.799 347.302,-347.303 0,-191.504 -155.799,-347.304 -347.302,-347.304"
             style="display:inline;fill:#29307f;fill-opacity:1;fill-rule:nonzero;stroke:none"
             id="path24"
             inkscape:label="inner circle" />
        </g>
        <g
           id="g26"
           transform="translate(553.106,1007.7197)">
          <path
             d="m 0,0 -0.555,-24.905 -4.547,0.1 L -3.88,30.046 0.667,29.945 0.111,5.041 64.746,3.6 64.634,-1.439 Z"
             style="fill:#29307f;fill-opacity:1;fill-rule:nonzero;stroke:none"
             id="path28" />
        </g>
        <g
           id="g30"
           transform="translate(583.3948,1102.9014)">
          <path
             d="m 0,0 c 4.427,2.935 10.098,3.702 17.008,2.302 l 29.549,-5.989 -0.981,-4.844 -29.162,5.91 c -5.683,1.153 -10.303,0.591 -13.856,-1.68 -3.553,-2.272 -5.855,-5.992 -6.902,-11.159 -1.204,-5.943 -0.376,-10.985 2.482,-15.128 2.859,-4.143 7.291,-6.824 13.298,-8.04 l 26.933,-5.46 -0.981,-4.844 -71.888,14.57 0.982,4.843 31.875,-6.46 c -3.135,2.452 -5.307,5.581 -6.519,9.391 -1.211,3.809 -1.346,8.039 -0.404,12.69 C -7.283,-7.569 -4.427,-2.936 0,0"
             style="fill:#29307f;fill-opacity:1;fill-rule:nonzero;stroke:none"
             id="path32" />
        </g>
        <g
           id="g34"
           transform="translate(599.7314,1150.814)">
          <path
             d="m 0,0 c 0.413,-3.295 1.652,-6.3 3.718,-9.016 2.066,-2.717 4.761,-4.888 8.084,-6.513 L 26.598,21.14 C 23.102,22.338 19.677,22.653 16.321,22.088 12.967,21.523 9.983,20.204 7.37,18.132 4.757,16.059 2.771,13.341 1.416,9.981 0.059,6.619 -0.412,3.292 0,0 m 31.949,24.097 -16.608,-41.16 c 3.777,-1.384 7.476,-1.775 11.093,-1.172 3.618,0.601 6.832,2.094 9.641,4.478 2.81,2.383 4.979,5.47 6.508,9.26 1.257,3.117 1.859,6.231 1.8,9.347 -0.058,3.115 -0.83,6.002 -2.315,8.662 l 4.098,1.438 c 1.669,-3.089 2.539,-6.48 2.613,-10.169 0.074,-3.691 -0.628,-7.368 -2.108,-11.035 -1.923,-4.767 -4.676,-8.596 -8.258,-11.484 -3.581,-2.89 -7.632,-4.649 -12.15,-5.278 -4.517,-0.63 -9.128,0.006 -13.835,1.905 -4.644,1.873 -8.414,4.548 -11.311,8.028 -2.896,3.477 -4.679,7.378 -5.353,11.7 -0.67,4.322 -0.133,8.651 1.619,12.991 1.75,4.339 4.346,7.822 7.786,10.45 3.442,2.625 7.395,4.193 11.863,4.7 4.469,0.506 9.027,-0.177 13.67,-2.051 z"
             style="fill:#29307f;fill-opacity:1;fill-rule:nonzero;stroke:none"
             id="path36" />
        </g>
        <g
           id="g38"
           transform="translate(686.8931,1226.7212)">
          <path
             d="m 0,0 c -5.726,-2.441 -11.659,-3.262 -17.795,-2.466 -6.138,0.797 -11.835,3.233 -17.096,7.311 -5.261,4.078 -9.042,8.99 -11.342,14.735 -2.303,5.743 -2.984,11.694 -2.05,17.848 0.937,6.154 3.482,11.914 7.641,17.279 3.068,3.958 6.533,7.108 10.392,9.454 3.862,2.342 7.95,3.719 12.267,4.126 l 0.639,-4.499 c -7.713,-1.024 -14.216,-4.948 -19.505,-11.771 -3.553,-4.584 -5.741,-9.559 -6.565,-14.925 -0.824,-5.363 -0.227,-10.538 1.79,-15.52 2.016,-4.982 5.291,-9.229 9.822,-12.741 4.531,-3.513 9.46,-5.625 14.789,-6.336 5.326,-0.711 10.487,0 15.476,2.137 4.991,2.134 9.262,5.493 12.815,10.077 5.249,6.77 7.401,14.066 6.458,21.886 l 4.517,0.501 C 22.937,32.814 22.627,28.488 21.325,24.119 20.023,19.75 17.857,15.613 14.829,11.707 10.67,6.341 5.728,2.439 0,0"
             style="fill:#29307f;fill-opacity:1;fill-rule:nonzero;stroke:none"
             id="path40" />
        </g>
        <g
           id="g42"
           transform="translate(697.4028,1310.9858)">
          <path
             d="m 0,0 3.561,3.427 35.787,-37.176 -3.561,-3.428 z m -9.78,9.588 c -1.094,-0.003 -2.031,0.4 -2.809,1.208 -0.776,0.807 -1.154,1.77 -1.133,2.888 0.021,1.118 0.435,2.065 1.242,2.843 0.808,0.776 1.76,1.166 2.855,1.169 1.095,0.002 2.031,-0.401 2.808,-1.207 C -6.04,15.681 -5.663,14.718 -5.684,13.6 -5.705,12.483 -6.119,11.534 -6.926,10.758 -7.734,9.98 -8.684,9.591 -9.78,9.588"
             style="fill:#29307f;fill-opacity:1;fill-rule:nonzero;stroke:none"
             id="path44" />
        </g>
        <g
           id="g46"
           transform="translate(763.2551,1357.8525)">
          <path
             d="m 0,0 c 5.245,-0.839 9.936,-4.117 14.07,-9.828 l 17.68,-24.422 -4.002,-2.897 -17.449,24.101 c -3.401,4.697 -7.179,7.413 -11.331,8.15 -4.153,0.734 -8.365,-0.443 -12.635,-3.534 -4.913,-3.556 -7.719,-7.827 -8.423,-12.809 -0.704,-4.985 0.741,-9.959 4.335,-14.924 l 16.116,-22.259 -4.004,-2.898 -30.26,41.797 3.844,2.782 6.55,-9.048 c -0.683,3.979 -0.197,7.83 1.461,11.553 1.658,3.721 4.435,6.993 8.332,9.815 C -10.485,-0.633 -5.246,0.84 0,0"
             style="fill:#29307f;fill-opacity:1;fill-rule:nonzero;stroke:none"
             id="path48" />
        </g>
        <g
           id="g50"
           transform="translate(823.8965,1342.9009)">
          <path
             d="m 0,0 c -4.535,0.301 -8.679,1.76 -12.428,4.38 -3.75,2.618 -6.713,6.183 -8.888,10.695 -2.204,4.57 -3.163,9.137 -2.875,13.703 0.285,4.563 1.732,8.698 4.333,12.406 2.604,3.705 6.16,6.646 10.672,8.821 3.74,1.804 7.488,2.714 11.247,2.735 3.758,0.018 7.26,-0.908 10.506,-2.782 l -2.136,-3.992 c -2.779,1.513 -5.68,2.254 -8.701,2.224 -3.022,-0.03 -6.016,-0.76 -8.983,-2.191 -3.622,-1.747 -6.479,-4.13 -8.57,-7.15 -2.093,-3.022 -3.239,-6.41 -3.44,-10.165 -0.203,-3.756 0.628,-7.561 2.488,-11.42 1.861,-3.859 4.322,-6.879 7.386,-9.06 C -6.325,6.023 -2.961,4.81 0.706,4.566 4.372,4.321 8.015,5.073 11.637,6.82 c 2.967,1.43 5.404,3.319 7.31,5.663 1.904,2.346 3.131,5.077 3.677,8.193 l 4.453,-0.815 C 26.523,16.154 25.068,12.837 22.712,9.91 20.356,6.98 17.308,4.615 13.569,2.813 9.057,0.637 4.534,-0.3 0,0"
             style="fill:#29307f;fill-opacity:1;fill-rule:nonzero;stroke:none"
             id="path52" />
        </g>
        <g
           id="g54"
           transform="translate(860.0054,1410.8115)">
          <path
             d="m 0,0 4.688,1.566 16.359,-48.94 -4.689,-1.565 z m -4.716,12.859 c -0.99,0.467 -1.662,1.232 -2.017,2.297 -0.356,1.062 -0.284,2.093 0.216,3.094 0.499,1.001 1.279,1.679 2.342,2.034 1.063,0.354 2.09,0.298 3.08,-0.169 0.99,-0.469 1.664,-1.235 2.018,-2.297 0.355,-1.063 0.283,-2.094 -0.216,-3.094 -0.499,-1.001 -1.281,-1.679 -2.343,-2.035 -1.063,-0.355 -2.089,-0.298 -3.08,0.17"
             style="fill:#29307f;fill-opacity:1;fill-rule:nonzero;stroke:none"
             id="path56" />
        </g>
        <g
           id="g58"
           transform="translate(939.686,1424.8071)">
          <path
             d="m 0,0 c 4.372,-3.018 7.194,-7.995 8.465,-14.93 l 5.438,-29.656 -4.862,-0.891 -5.366,29.267 c -1.046,5.703 -3.286,9.782 -6.716,12.236 -3.432,2.452 -7.74,3.203 -12.925,2.253 -5.965,-1.094 -10.337,-3.738 -13.118,-7.933 -2.784,-4.195 -3.62,-9.307 -2.516,-15.335 l 4.956,-27.031 -4.862,-0.891 -9.304,50.755 4.667,0.857 2.014,-10.989 c 1.097,3.887 3.194,7.152 6.294,9.798 3.098,2.644 7.015,4.402 11.747,5.27 C -9.736,3.944 -4.373,3.018 0,0"
             style="fill:#29307f;fill-opacity:1;fill-rule:nonzero;stroke:none"
             id="path60" />
        </g>
        <g
           id="g62"
           transform="translate(1021.5645,1428.498)">
          <path
             d="M 0,0 C 3.725,-3.788 5.556,-9.209 5.498,-16.259 L 5.243,-46.408 0.3,-46.366 0.552,-16.613 c 0.049,5.799 -1.382,10.227 -4.288,13.283 -2.907,3.055 -6.997,4.607 -12.268,4.651 -6.064,0.051 -10.856,-1.723 -14.38,-5.316 -3.523,-3.596 -5.31,-8.457 -5.362,-14.586 l -0.231,-27.481 -4.942,0.042 0.434,51.6 4.745,-0.039 -0.094,-11.171 c 1.81,3.609 4.486,6.42 8.029,8.434 3.542,2.012 7.719,3 12.53,2.96 C -8.817,5.709 -3.725,3.788 0,0"
             style="fill:#29307f;fill-opacity:1;fill-rule:nonzero;stroke:none"
             id="path64" />
        </g>
        <g
           id="g66"
           transform="translate(1080.2554,1380.707)">
          <path
             d="m 0,0 c 3.315,1.382 6.068,3.775 8.261,7.182 l 1.813,9.516 -17.285,3.293 c -4.986,0.949 -8.767,0.729 -11.346,-0.657 -2.579,-1.387 -4.17,-3.667 -4.774,-6.838 -0.629,-3.302 0.104,-6.143 2.201,-8.521 2.096,-2.379 5.378,-3.994 9.845,-4.845 C -7.077,-1.67 -3.316,-1.38 0,0 m 14.033,38.536 c 2.755,-3.846 3.542,-8.876 2.358,-15.091 l -6.123,-32.142 -4.661,0.886 1.72,9.032 c -2.186,-2.669 -4.989,-4.534 -8.41,-5.593 -3.423,-1.059 -7.303,-1.175 -11.64,-0.349 -5.632,1.074 -9.832,3.248 -12.594,6.526 -2.765,3.276 -3.733,7.083 -2.906,11.421 0.802,4.207 2.957,7.336 6.467,9.385 3.509,2.049 8.566,2.443 15.169,1.185 l 17.382,-3.311 0.777,4.079 c 0.9,4.725 0.305,8.561 -1.782,11.509 -2.09,2.948 -5.594,4.889 -10.514,5.827 -3.366,0.642 -6.698,0.672 -9.994,0.093 -3.298,-0.58 -6.199,-1.638 -8.705,-3.172 l -1.762,3.958 c 2.956,1.784 6.334,2.97 10.136,3.553 3.8,0.585 7.645,0.507 11.528,-0.233 6.279,-1.196 10.796,-3.717 13.554,-7.563"
             style="fill:#29307f;fill-opacity:1;fill-rule:nonzero;stroke:none"
             id="path68" />
        </g>
        <g
           id="g70"
           transform="translate(1142.437,1358.7729)">
          <path
             d="m 0,0 c -1.573,-0.708 -3.349,-1.049 -5.329,-1.022 -1.979,0.029 -3.935,0.378 -5.862,1.05 -4.233,1.477 -7.093,3.783 -8.58,6.918 -1.49,3.137 -1.507,6.79 -0.053,10.96 l 11.099,31.829 -8.96,3.124 1.399,4.014 8.961,-3.124 3.711,10.64 4.667,-1.628 -3.711,-10.64 15.495,-5.403 -1.4,-4.015 -15.494,5.404 -10.937,-31.362 c -1.107,-3.174 -1.187,-5.852 -0.235,-8.032 0.948,-2.182 2.917,-3.792 5.904,-4.834 3.048,-1.062 5.883,-1.041 8.504,0.071 z"
             style="fill:#29307f;fill-opacity:1;fill-rule:nonzero;stroke:none"
             id="path72" />
        </g>
        <g
           id="g74"
           transform="translate(1188.9009,1405.8813)">
          <path
             d="M 0,0 C -0.391,1.022 -0.346,2.041 0.134,3.054 0.614,4.066 1.38,4.76 2.434,5.136 3.487,5.512 4.519,5.46 5.532,4.98 6.544,4.5 7.246,3.749 7.636,2.726 8.026,1.702 7.981,0.683 7.502,-0.328 7.021,-1.341 6.255,-2.034 5.202,-2.411 4.148,-2.787 3.116,-2.734 2.103,-2.255 1.089,-1.774 0.39,-1.024 0,0 m -5.506,-12.542 4.466,-2.117 -22.097,-46.63 -4.467,2.116 z"
             style="fill:#29307f;fill-opacity:1;fill-rule:nonzero;stroke:none"
             id="path76" />
        </g>
        <g
           id="g78"
           transform="translate(1267.7632,1305.7578)">
          <path
             d="m 0,0 10.761,42.544 -39.082,-19.87 z m -1.189,-4.492 -31.332,25.082 -19.039,-9.703 -4.244,3.398 68.095,34.124 3.936,-3.15 -18.398,-73.912 -4.244,3.398 z"
             style="fill:#29307f;fill-opacity:1;fill-rule:nonzero;stroke:none"
             id="path80" />
        </g>
        <g
           id="g82"
           transform="translate(1325.0195,1307.752)">
          <path
             d="M 0,0 C 0.013,1.095 0.428,2.025 1.247,2.791 2.064,3.556 3.033,3.921 4.151,3.884 5.269,3.846 6.21,3.42 6.975,2.601 7.741,1.782 8.116,0.825 8.104,-0.27 8.091,-1.366 7.675,-2.296 6.857,-3.061 6.038,-3.827 5.071,-4.19 3.953,-4.152 2.835,-4.115 1.894,-3.687 1.128,-2.869 0.363,-2.051 -0.013,-1.095 0,0 m -9.728,-9.642 3.377,-3.609 -37.682,-35.253 -3.376,3.609 z"
             style="fill:#29307f;fill-opacity:1;fill-rule:nonzero;stroke:none"
             id="path84" />
        </g>
        <g
           id="g86"
           transform="translate(1346.3213,1257.1021)">
          <path
             d="M 0,0 C 3.629,-1.472 6.893,-4.126 9.792,-7.966 L 5.927,-10.885 5.29,-9.878 c -3.454,4.575 -7.588,7.07 -12.4,7.482 -4.813,0.414 -9.769,-1.307 -14.871,-5.157 l -21.459,-16.201 -2.977,3.944 41.182,31.092 2.859,-3.786 -8.995,-6.791 C -7.42,1.706 -3.63,1.47 0,0"
             style="fill:#29307f;fill-opacity:1;fill-rule:nonzero;stroke:none"
             id="path88" />
        </g>
        <g
           id="g90"
           transform="translate(1351.8701,1160.271)">
          <path
             d="m 0,0 c 0.701,6.185 2.913,11.751 6.633,16.697 3.719,4.946 8.649,8.7 14.793,11.265 6.141,2.564 12.279,3.432 18.411,2.6 6.132,-0.83 11.644,-3.172 16.536,-7.021 4.892,-3.849 8.647,-8.904 11.263,-15.168 1.929,-4.622 2.962,-9.19 3.098,-13.705 0.135,-4.513 -0.685,-8.749 -2.461,-12.704 l -4.23,1.661 c 2.914,7.217 2.708,14.81 -0.619,22.775 -2.234,5.352 -5.483,9.708 -9.743,13.071 -4.262,3.362 -9.056,5.397 -14.384,6.099 C 33.968,26.273 28.659,25.52 23.368,23.31 18.077,21.102 13.809,17.855 10.563,13.57 7.317,9.287 5.391,4.447 4.788,-0.947 4.184,-6.341 4.999,-11.713 7.234,-17.064 c 3.301,-7.906 8.585,-13.377 15.852,-16.414 l -1.791,-4.176 c -4.062,1.518 -7.673,3.919 -10.83,7.208 -3.159,3.288 -5.69,7.212 -7.595,11.772 C 0.255,-12.409 -0.703,-6.186 0,0"
             style="fill:#29307f;fill-opacity:1;fill-rule:nonzero;stroke:none"
             id="path92" />
        </g>
        <g
           id="g94"
           transform="translate(1382.7705,1071.1392)">
          <path
             d="m 0,0 c 2.457,-2.677 5.485,-4.559 9.086,-5.644 3.601,-1.086 7.463,-1.189 11.589,-0.31 4.124,0.879 7.609,2.548 10.455,5.008 2.845,2.46 4.843,5.412 5.996,8.857 1.151,3.447 1.316,7.104 0.492,10.971 -0.824,3.868 -2.466,7.14 -4.921,9.815 -2.459,2.679 -5.488,4.56 -9.087,5.645 -3.602,1.086 -7.464,1.189 -11.589,0.311 C 7.896,33.773 4.411,32.104 1.566,29.645 -1.28,27.186 -3.278,24.233 -4.43,20.787 -5.583,17.341 -5.746,13.683 -4.922,9.816 -4.098,5.949 -2.458,2.678 0,0 m -8.736,22.498 c 1.373,4.301 3.777,7.964 7.21,10.985 3.432,3.023 7.597,5.057 12.496,6.1 4.898,1.043 9.531,0.886 13.898,-0.475 4.366,-1.36 8.054,-3.724 11.063,-7.093 3.008,-3.367 5.021,-7.436 6.038,-12.206 C 42.985,15.04 42.805,10.504 41.432,6.202 40.058,1.9 37.654,-1.763 34.222,-4.785 30.789,-7.807 26.624,-9.841 21.726,-10.885 16.827,-11.929 12.194,-11.77 7.828,-10.41 3.46,-9.05 -0.227,-6.685 -3.235,-3.317 -6.244,0.05 -8.256,4.12 -9.273,8.889 c -1.017,4.771 -0.838,9.307 0.537,13.609"
             style="fill:#29307f;fill-opacity:1;fill-rule:nonzero;stroke:none"
             id="path96" />
        </g>
        <g
           id="g98"
           transform="translate(1429.1563,993.7998)">
          <path
             d="m 0,0 c -3.617,-3.893 -8.949,-5.968 -15.995,-6.227 l -30.13,-1.104 -0.181,4.938 29.735,1.091 c 5.794,0.213 10.154,1.841 13.076,4.882 2.92,3.043 4.286,7.198 4.092,12.466 -0.222,6.059 -2.209,10.767 -5.958,14.124 -3.751,3.359 -8.687,4.924 -14.813,4.7 l -27.462,-1.008 -0.182,4.939 51.568,1.893 0.173,-4.742 -11.163,-0.41 c 3.686,-1.646 6.616,-4.191 8.788,-7.64 C 3.718,24.455 4.892,20.326 5.069,15.517 5.305,9.064 3.616,3.891 0,0"
             style="display:inline;fill:#29307f;fill-opacity:1;fill-rule:nonzero;stroke:none"
             id="path100" />
        </g>
        <g
           id="g102"
           transform="translate(1382.5532,927.9531)">
          <path
             d="m 0,0 c 1.306,-3.39 3.437,-6.248 6.391,-8.578 2.952,-2.329 6.509,-3.838 10.671,-4.53 4.16,-0.692 8.013,-0.414 11.562,0.834 3.547,1.249 6.488,3.264 8.822,6.048 2.332,2.787 3.824,6.128 4.472,10.029 0.649,3.901 0.32,7.548 -0.987,10.938 -1.307,3.391 -3.437,6.25 -6.39,8.576 -2.955,2.33 -6.511,3.839 -10.671,4.531 -4.161,0.691 -8.015,0.415 -11.563,-0.834 C 8.758,25.769 5.818,23.751 3.485,20.965 1.151,18.18 -0.339,14.836 -0.988,10.936 -1.636,7.035 -1.307,3.391 0,0 m 63.156,-25.782 -72.357,12.028 0.795,4.778 11.994,-1.993 c -3.631,2.675 -6.216,6.01 -7.755,10.007 -1.541,3.999 -1.928,8.305 -1.161,12.921 0.79,4.745 2.608,8.853 5.456,12.32 2.847,3.469 6.403,5.967 10.666,7.496 4.263,1.531 8.895,1.878 13.902,1.045 5.006,-0.831 9.294,-2.661 12.867,-5.495 3.57,-2.831 6.125,-6.346 7.666,-10.544 1.539,-4.197 1.916,-8.669 1.127,-13.414 -0.756,-4.55 -2.508,-8.453 -5.252,-11.704 -2.745,-3.251 -6.209,-5.597 -10.391,-7.041 l 33.253,-5.527 z"
             style="fill:#29307f;fill-opacity:1;fill-rule:nonzero;stroke:none"
             id="path104" />
        </g>
        <g
           id="g106"
           transform="translate(1427.6929,867.6445)">
          <path
             d="M 0,0 C 0.96,0.525 1.975,0.619 3.044,0.281 4.112,-0.058 4.904,-0.723 5.42,-1.714 5.935,-2.706 6.024,-3.736 5.686,-4.805 5.349,-5.872 4.699,-6.671 3.738,-7.195 2.776,-7.721 1.762,-7.815 0.694,-7.478 c -1.069,0.338 -1.86,1.003 -2.376,1.997 -0.515,0.992 -0.604,2.022 -0.266,3.09 C -1.61,-1.321 -0.961,-0.526 0,0 m -13.173,3.751 -1.49,-4.713 -49.199,15.562 1.49,4.712 z"
             style="fill:#29307f;fill-opacity:1;fill-rule:nonzero;stroke:none"
             id="path108" />
        </g>
        <g
           id="g110"
           transform="translate(1346.6865,830.2979)">
          <path
             d="m 0,0 c -0.583,1.624 -0.785,3.421 -0.604,5.393 0.182,1.969 0.683,3.893 1.502,5.763 1.801,4.105 4.323,6.777 7.565,8.016 3.243,1.241 6.885,0.974 10.929,-0.799 L 50.263,4.834 54.075,13.524 57.967,11.818 54.156,3.127 64.476,-1.399 62.49,-5.926 52.17,-1.4 45.579,-16.428 41.686,-14.72 48.278,0.307 17.86,13.648 c -3.079,1.35 -5.741,1.638 -7.989,0.859 C 7.623,13.73 5.864,11.893 4.593,8.997 3.296,6.04 3.099,3.212 4.002,0.512 Z"
             style="fill:#29307f;fill-opacity:1;fill-rule:nonzero;stroke:none"
             id="path112" />
        </g>
        <g
           id="g114"
           transform="translate(1390.0444,780.3037)">
          <path
             d="M 0,0 C 1.05,0.31 2.062,0.186 3.034,-0.371 4.006,-0.929 4.639,-1.747 4.933,-2.825 5.226,-3.904 5.094,-4.93 4.537,-5.902 3.98,-6.874 3.175,-7.515 2.126,-7.825 c -1.051,-0.31 -2.062,-0.187 -3.035,0.37 -0.972,0.559 -1.604,1.374 -1.898,2.454 -0.294,1.079 -0.161,2.106 0.396,3.077 C -1.854,-0.951 -1.052,-0.311 0,0 m -12.078,6.459 -2.456,-4.288 -44.779,25.642 2.456,4.29 z"
             style="fill:#29307f;fill-opacity:1;fill-rule:nonzero;stroke:none"
             id="path116" />
        </g>
        <g
           id="g118"
           transform="translate(1302.6138,755.1357)">
          <path
             d="m 0,0 c -0.438,-3.605 0.099,-7.131 1.613,-10.575 1.514,-3.442 3.945,-6.446 7.294,-9.01 3.347,-2.564 6.881,-4.128 10.599,-4.695 3.718,-0.563 7.261,-0.164 10.63,1.197 3.367,1.364 6.255,3.614 8.658,6.754 2.405,3.139 3.827,6.514 4.265,10.12 0.439,3.607 -0.099,7.133 -1.613,10.573 -1.513,3.445 -3.946,6.447 -7.293,9.012 -3.349,2.564 -6.881,4.131 -10.599,4.693 -3.72,0.567 -7.262,0.167 -10.63,-1.197 C 9.556,15.511 6.669,13.259 4.265,10.119 1.86,6.979 0.439,3.608 0,0 m 11.426,21.258 c 4.163,1.751 8.509,2.304 13.037,1.657 4.528,-0.646 8.779,-2.491 12.756,-5.537 3.975,-3.046 6.864,-6.67 8.669,-10.874 1.802,-4.202 2.4,-8.541 1.795,-13.018 -0.606,-4.473 -2.391,-8.647 -5.357,-12.52 -2.965,-3.871 -6.529,-6.683 -10.693,-8.433 -4.162,-1.75 -8.508,-2.303 -13.035,-1.657 -4.529,0.646 -8.782,2.491 -12.757,5.536 -3.976,3.046 -6.865,6.672 -8.669,10.873 -1.803,4.205 -2.401,8.544 -1.795,13.019 0.605,4.475 2.391,8.649 5.356,12.52 2.967,3.873 6.531,6.684 10.693,8.434"
             style="fill:#29307f;fill-opacity:1;fill-rule:nonzero;stroke:none"
             id="path120" />
        </g>
        <g
           id="g122"
           transform="translate(1273.6333,669.543)">
          <path
             d="m 0,0 c -5.304,0.276 -10.318,3.033 -15.038,8.272 l -20.181,22.4 3.672,3.307 19.918,-22.105 c 3.88,-4.307 7.926,-6.605 12.134,-6.895 4.208,-0.29 8.271,1.33 12.187,4.859 4.505,4.059 6.84,8.603 7.01,13.634 0.169,5.032 -1.799,9.822 -5.901,14.376 l -18.396,20.416 3.672,3.31 34.541,-38.337 -3.524,-3.177 -7.478,8.299 C 23.72,24.477 23.646,20.595 22.395,16.718 21.143,12.84 18.73,9.291 15.156,6.07 10.358,1.747 5.305,-0.276 0,0"
             style="fill:#29307f;fill-opacity:1;fill-rule:nonzero;stroke:none"
             id="path124" />
        </g>
        <g
           id="g126"
           transform="translate(1252.3428,630.2588)">
          <path
             d="M 0,0 C 1.079,-0.186 1.932,-0.742 2.559,-1.672 3.185,-2.602 3.392,-3.614 3.178,-4.713 2.966,-5.812 2.395,-6.673 1.465,-7.299 0.537,-7.926 -0.468,-8.145 -1.547,-7.96 c -1.079,0.187 -1.932,0.743 -2.559,1.672 -0.627,0.931 -0.833,1.943 -0.62,3.04 0.214,1.099 0.785,1.961 1.714,2.588 C -2.082,-0.034 -1.079,0.187 0,0 m -7.984,11.129 -4.097,-2.763 -28.854,42.78 4.098,2.763 z"
             style="fill:#29307f;fill-opacity:1;fill-rule:nonzero;stroke:none"
             id="path128" />
        </g>
        <g
           id="g130"
           transform="translate(1171.3662,606.5693)">
          <path
             d="m 0,0 c -5.022,1.736 -9.074,5.774 -12.159,12.115 l -13.187,27.113 4.445,2.163 13.015,-26.757 C -5.35,9.418 -2.099,6.09 1.864,4.645 5.827,3.202 10.179,3.633 14.919,5.939 c 5.454,2.652 8.957,6.373 10.513,11.159 1.555,4.788 0.992,9.936 -1.689,15.448 L 11.723,57.259 16.167,59.42 38.738,13.017 34.472,10.942 29.586,20.986 C 29.57,16.95 28.425,13.241 26.148,9.861 23.872,6.483 20.57,3.74 16.244,1.636 10.436,-1.188 5.021,-1.734 0,0"
             style="fill:#29307f;fill-opacity:1;fill-rule:nonzero;stroke:none"
             id="path132" />
        </g>
        <g
           id="g134"
           transform="translate(1092.5166,619.6797)">
          <path
             d="m 0,0 c -2.675,-2.513 -4.488,-5.515 -5.441,-9.005 -0.951,-3.488 -0.914,-7.178 0.114,-11.064 1.028,-3.887 2.814,-7.095 5.358,-9.627 2.545,-2.53 5.602,-4.228 9.168,-5.091 3.569,-0.861 7.298,-0.779 11.182,0.248 3.888,1.027 7.152,2.796 9.796,5.3 2.644,2.506 4.446,5.489 5.405,8.945 0.961,3.459 0.926,7.13 -0.101,11.017 -1.028,3.886 -2.818,7.111 -5.371,9.674 C 27.558,2.96 24.514,4.677 20.977,5.548 17.44,6.419 13.729,6.341 9.842,5.312 5.957,4.284 2.675,2.515 0,0 m -3.717,-45.104 -11.777,44.535 c -2.19,8.281 -1.801,14.927 1.168,19.94 2.97,5.011 8.501,8.589 16.591,10.728 4.587,1.213 9.106,1.658 13.553,1.335 4.45,-0.325 8.244,-1.4 11.385,-3.226 l -1.62,-4.314 c -3.091,1.635 -6.556,2.627 -10.398,2.974 -3.84,0.349 -7.737,0 -11.687,-1.044 C -3.128,24.072 -7.616,21.197 -9.969,17.2 -12.32,13.204 -12.62,7.893 -10.867,1.267 l 2.223,-8.41 c 1.08,4.17 3.172,7.725 6.282,10.66 3.109,2.936 6.927,5.001 11.449,6.197 4.652,1.23 9.147,1.312 13.484,0.242 4.339,-1.065 8.081,-3.161 11.223,-6.285 3.144,-3.12 5.33,-7.008 6.56,-11.659 1.23,-4.652 1.251,-9.111 0.062,-13.379 -1.188,-4.268 -3.408,-7.922 -6.662,-10.965 -3.25,-3.04 -7.202,-5.176 -11.854,-6.406 -4.586,-1.213 -8.997,-1.288 -13.231,-0.229 -4.234,1.065 -7.828,3.181 -10.78,6.353 l 2.982,-11.277 z"
             style="fill:#29307f;fill-opacity:1;fill-rule:nonzero;stroke:none"
             id="path136" />
        </g>
        <g
           id="g138"
           transform="translate(1001.9661,613.4551)">
          <path
             d="m 0,0 c 5.356,-3.173 9.53,-7.469 12.517,-12.888 2.991,-5.419 4.397,-11.452 4.223,-18.108 -0.175,-6.654 -1.896,-12.608 -5.166,-17.861 -3.268,-5.255 -7.662,-9.326 -13.175,-12.213 -5.516,-2.887 -11.664,-4.243 -18.451,-4.066 -5.006,0.132 -9.597,1.059 -13.771,2.783 -4.173,1.727 -7.701,4.207 -10.583,7.449 l 3.248,3.178 c 5.39,-5.613 12.4,-8.533 21.031,-8.759 5.797,-0.153 11.102,1.027 15.914,3.537 4.813,2.51 8.631,6.052 11.453,10.626 2.824,4.575 4.31,9.726 4.46,15.458 0.151,5.731 -1.063,10.955 -3.644,15.671 -2.577,4.714 -6.205,8.454 -10.879,11.214 -4.675,2.759 -9.909,4.214 -15.708,4.366 -8.563,0.223 -15.719,-2.357 -21.464,-7.744 l -3.076,3.344 c 3.047,3.085 6.717,5.395 11.009,6.93 4.293,1.536 8.91,2.239 13.851,2.108 C -11.425,4.848 -5.355,3.173 0,0"
             style="fill:#29307f;fill-opacity:1;fill-rule:nonzero;stroke:none"
             id="path140" />
        </g>
        <g
           id="g142"
           transform="translate(907.9985,621.666)">
          <path
             d="m 0,0 c -3.446,-1.151 -6.4,-3.147 -8.862,-5.992 -2.459,-2.845 -4.13,-6.328 -5.012,-10.453 -0.88,-4.124 -0.778,-7.987 0.305,-11.589 1.086,-3.601 2.965,-6.63 5.641,-9.089 2.676,-2.457 5.947,-4.101 9.813,-4.926 3.868,-0.826 7.526,-0.663 10.971,0.487 3.447,1.151 6.401,3.149 8.861,5.992 2.462,2.844 4.132,6.33 5.012,10.453 0.882,4.125 0.781,7.988 -0.305,11.589 -1.083,3.602 -2.963,6.631 -5.64,9.088 -2.675,2.459 -5.947,4.1 -9.814,4.927 C 7.103,1.313 3.447,1.151 0,0 m 24.103,-1.205 c 3.367,-3.011 5.73,-6.7 7.088,-11.068 1.359,-4.367 1.515,-8.998 0.469,-13.897 -1.046,-4.897 -3.081,-9.062 -6.105,-12.494 -3.024,-3.431 -6.687,-5.832 -10.991,-7.204 -4.302,-1.372 -8.838,-1.55 -13.608,-0.531 -4.768,1.017 -8.836,3.034 -12.203,6.043 -3.366,3.009 -5.729,6.699 -7.088,11.065 -1.358,4.368 -1.514,9.002 -0.468,13.899 1.045,4.899 3.081,9.063 6.105,12.494 3.024,3.431 6.688,5.833 10.989,7.205 4.304,1.373 8.84,1.549 13.608,0.531 4.771,-1.02 8.838,-3.033 12.204,-6.043"
             style="fill:#29307f;fill-opacity:1;fill-rule:nonzero;stroke:none"
             id="path144" />
        </g>
        <g
           id="g146"
           transform="translate(782.0452,628.9463)">
          <path
             d="M 0,0 C -1.684,4.966 -1.007,10.631 2.03,16.994 L 15.014,44.206 19.475,42.077 6.661,15.224 C 4.163,9.989 3.542,5.394 4.793,1.437 c 1.252,-3.956 4.169,-7.028 8.747,-9.212 5.236,-2.498 10.165,-2.841 14.788,-1.032 4.625,1.811 8.256,5.481 10.895,11.011 L 51.058,27.007 55.519,24.88 42.705,-1.977 c -2.497,-5.231 -3.119,-9.828 -1.868,-13.784 1.252,-3.957 4.168,-7.028 8.747,-9.213 5.235,-2.498 10.164,-2.84 14.788,-1.033 4.625,1.811 8.255,5.483 10.895,11.014 L 87.101,9.809 91.562,7.68 69.341,-38.892 l -4.283,2.044 4.768,9.993 c -3.107,-2.534 -6.625,-3.977 -10.554,-4.33 -3.928,-0.352 -8.004,0.479 -12.227,2.494 -4.223,2.016 -7.353,4.677 -9.389,7.985 -2.036,3.31 -2.798,7.104 -2.288,11.387 -3.192,-2.71 -6.922,-4.291 -11.188,-4.739 -4.266,-0.446 -8.599,0.38 -13.001,2.482 C 5.411,-8.825 1.683,-4.966 0,0"
             style="fill:#29307f;fill-opacity:1;fill-rule:nonzero;stroke:none"
             id="path148" />
        </g>
        <g
           id="g150"
           transform="translate(743.5818,707.0078)">
          <path
             d="m 0,0 c -3.617,0.573 -7.169,0.155 -10.658,-1.25 -3.488,-1.404 -6.567,-3.74 -9.236,-7.007 -2.667,-3.265 -4.342,-6.747 -5.023,-10.448 -0.681,-3.697 -0.381,-7.262 0.902,-10.692 1.282,-3.43 3.454,-6.397 6.516,-8.899 3.062,-2.501 6.39,-4.028 9.981,-4.578 3.592,-0.552 7.132,-0.125 10.619,1.279 3.49,1.406 6.568,3.741 9.235,7.008 2.669,3.267 4.344,6.749 5.025,10.447 0.682,3.699 0.394,7.252 -0.864,10.661 -1.255,3.411 -3.416,6.366 -6.478,8.867 C 6.957,-2.11 3.617,-0.572 0,0 m -28.522,-30.694 c -1.593,4.194 -1.994,8.521 -1.202,12.981 0.792,4.458 2.793,8.653 6.003,12.583 3.211,3.931 6.933,6.74 11.164,8.432 4.234,1.69 8.553,2.161 12.96,1.411 4.409,-0.752 8.476,-2.649 12.201,-5.692 3.521,-2.876 6.033,-6.312 7.537,-10.305 1.504,-3.993 1.837,-8.116 0.999,-12.37 l 19.576,23.962 3.827,-3.127 -44.778,-54.814 -3.676,3.003 7.693,9.416 c -4.083,-1.77 -8.265,-2.331 -12.546,-1.685 -4.279,0.644 -8.207,2.427 -11.779,5.345 -3.725,3.044 -6.384,6.665 -7.979,10.86"
             style="fill:#29307f;fill-opacity:1;fill-rule:nonzero;stroke:none"
             id="path152" />
        </g>
        <g
           id="g154"
           transform="translate(699.3804,753.1143)">
          <path
             d="m 0,0 c -3.45,0.997 -7.095,0.852 -10.937,-0.435 l -7.367,-6.29 11.425,-13.382 c 3.295,-3.86 6.383,-6.053 9.262,-6.585 2.88,-0.531 5.548,0.253 8.003,2.348 2.556,2.183 3.762,4.858 3.613,8.025 -0.147,3.167 -1.698,6.479 -4.651,9.938 C 6.568,-3.124 3.451,-0.997 0,0 m -35.054,-21.285 c 0.257,4.723 2.789,9.14 7.601,13.249 L -2.569,13.209 0.512,9.602 -6.479,3.632 c 3.376,0.715 6.729,0.416 10.06,-0.899 3.333,-1.315 6.433,-3.652 9.299,-7.009 3.723,-4.36 5.639,-8.683 5.744,-12.968 0.106,-4.286 -1.52,-7.861 -4.878,-10.73 -3.258,-2.781 -6.897,-3.874 -10.916,-3.275 -4.02,0.597 -8.212,3.451 -12.577,8.563 l -11.49,13.457 -3.157,-2.695 c -3.658,-3.123 -5.594,-6.488 -5.809,-10.094 -0.213,-3.606 1.305,-7.314 4.557,-11.123 2.224,-2.606 4.805,-4.714 7.739,-6.325 2.936,-1.61 5.86,-2.6 8.776,-2.971 l -1.102,-4.19 c -3.423,0.458 -6.8,1.646 -10.131,3.569 -3.33,1.921 -6.28,4.387 -8.848,7.394 -4.149,4.861 -6.097,9.654 -5.842,14.379"
             style="fill:#29307f;fill-opacity:1;fill-rule:nonzero;stroke:none"
             id="path156" />
        </g>
        <g
           id="g158"
           transform="translate(620.301,800.085)">
          <path
             d="M 0,0 C 1.359,5.135 5.086,9.477 11.181,13.021 L 37.243,28.18 39.728,23.907 14.007,8.947 C 8.995,6.032 5.916,2.543 4.769,-1.516 3.624,-5.575 4.375,-9.883 7.026,-14.439 c 3.049,-5.243 7.018,-8.46 11.906,-9.658 4.89,-1.197 9.983,-0.255 15.281,2.827 l 23.756,13.817 2.485,-4.273 -44.606,-25.943 -2.385,4.102 9.655,5.615 c -4.027,-0.283 -7.81,0.585 -11.349,2.604 -3.538,2.021 -6.517,5.111 -8.936,9.27 C -0.415,-10.495 -1.359,-5.136 0,0"
             style="fill:#29307f;fill-opacity:1;fill-rule:nonzero;stroke:none"
             id="path160" />
        </g>
        <g
           id="g162"
           transform="translate(584.0781,873.376)">
          <path
             d="m 0,0 64.172,-4.475 c 4.952,-0.273 8.775,-1.3 11.472,-3.076 2.697,-1.778 4.663,-4.334 5.899,-7.671 0.824,-2.224 1.227,-4.447 1.207,-6.668 -0.021,-2.222 -0.49,-4.275 -1.407,-6.162 l -4.381,1.013 c 1.617,3.409 1.774,6.876 0.469,10.399 -0.87,2.348 -2.263,4.117 -4.18,5.304 -1.916,1.187 -4.712,1.907 -8.391,2.161 l -6.801,0.432 -40.129,-39.644 -1.82,4.911 36.109,35.415 -50.467,3.332 z"
             style="fill:#29307f;fill-opacity:1;fill-rule:nonzero;stroke:none"
             id="path164" />
        </g>
        <g
           id="g166"
           transform="translate(857.853,937.8516)">
          <path
             d="m 0,0 h -102.918 c -16.916,0 -31.799,5.796 -44.488,17.231 -12.687,11.748 -18.954,25.22 -18.954,40.415 V 95.71 c 0,15.509 6.267,28.98 18.954,40.415 12.376,11.436 27.101,17.231 44.019,17.231 H 13.784 L 0,112.472 h -91.325 c -7.52,0 -13.629,-2.037 -18.485,-6.265 -4.7,-4.073 -7.048,-9.712 -7.048,-16.918 V 64.225 c 0,-7.048 2.348,-12.688 7.204,-16.918 4.857,-4.073 10.966,-6.11 18.329,-6.11 H 13.784 Z"
             style="fill:#af0404;fill-opacity:1;fill-rule:nonzero;stroke:none"
             id="path168"
             inkscape:label="first c" />
        </g>
        <g
           id="g170"
           transform="translate(1042.8438,1003.1729)">
          <path
             d="m 0,0 h -83.649 c -4.386,0 -8.146,-1.566 -11.122,-4.543 -2.82,-2.819 -4.386,-6.422 -4.543,-10.652 0.157,-3.915 1.723,-7.362 4.543,-10.495 3.289,-2.976 7.207,-4.542 11.591,-4.542 H 0 Z m -96.494,-65.321 c -15.039,0 -27.726,5.011 -37.91,14.881 -9.867,9.869 -14.881,21.304 -14.881,34.149 0,13.629 5.014,25.534 14.881,35.401 9.871,9.87 22.401,14.725 37.91,14.725 h 69.395 c 11.122,0 20.051,-4.228 27.099,-12.844 v 16.762 c 0,4.228 -1.565,7.675 -4.699,10.651 -3.133,3.289 -7.363,4.856 -12.532,4.856 h -117.173 l 11.75,34.775 H 1.411 c 15.194,0 26.943,-4.228 35.402,-12.687 8.458,-8.303 12.688,-21.931 12.688,-40.886 V -65.321 H 9.243 L 2.976,-49.03 c -7.831,-10.809 -17.231,-16.291 -28.195,-16.291 z"
             style="fill:#af0404;fill-opacity:1;fill-rule:nonzero;stroke:none"
             id="path172"
             inkscape:label="middle a" />
        </g>
        <g
           id="g174"
           transform="translate(1294.7222,937.8516)">
          <path
             d="m 0,0 h -102.917 c -16.917,0 -31.8,5.796 -44.488,17.231 -12.688,11.748 -18.954,25.22 -18.954,40.415 V 95.71 c 0,15.509 6.266,28.98 18.954,40.415 12.375,11.436 27.1,17.231 44.018,17.231 H 13.784 L 0,112.472 h -91.324 c -7.52,0 -13.629,-2.037 -18.486,-6.265 -4.699,-4.073 -7.048,-9.712 -7.048,-16.918 V 64.225 c 0,-7.048 2.349,-12.688 7.204,-16.918 4.857,-4.073 10.966,-6.11 18.33,-6.11 H 13.784 Z"
             style="fill:#af0404;fill-opacity:1;fill-rule:nonzero;stroke:none"
             id="path176"
             inkscape:label="last c" />
        </g>
        <g
           id="g178"
           transform="translate(880.1094,783.2227)">
          <path
             d="M 0,0 H -30.304 V 57.179 H -1.276 V 51.118 H -23.605 V 32.1 H -2.951 V 26.078 H -23.605 V 6.062 H 0 Z"
             style="fill:#29307f;fill-opacity:1;fill-rule:nonzero;stroke:none"
             id="path180" />
        </g>
        <g
           id="g182"
           transform="translate(888.4431,785.5352)">
          <path
             d="M 0,0 V 7.896 C 0.904,7.098 1.987,6.38 3.25,5.743 4.512,5.104 5.842,4.566 7.237,4.128 8.633,3.689 10.035,3.35 11.444,3.111 c 1.408,-0.239 2.712,-0.359 3.908,-0.359 4.12,0 7.197,0.764 9.23,2.292 2.034,1.529 3.051,3.729 3.051,6.6 0,1.542 -0.34,2.884 -1.017,4.027 -0.679,1.142 -1.615,2.186 -2.811,3.13 -1.197,0.943 -2.612,1.847 -4.247,2.712 -1.634,0.863 -3.396,1.774 -5.284,2.731 -1.993,1.01 -3.854,2.033 -5.582,3.07 -1.728,1.038 -3.23,2.179 -4.505,3.429 -1.277,1.25 -2.28,2.665 -3.01,4.246 -0.732,1.582 -1.097,3.436 -1.097,5.563 0,2.605 0.572,4.871 1.714,6.799 1.143,1.926 2.645,3.514 4.506,4.764 1.86,1.25 3.981,2.18 6.36,2.792 2.378,0.612 4.805,0.917 7.277,0.917 5.635,0 9.742,-0.678 12.321,-2.034 v -7.536 c -3.376,2.34 -7.709,3.51 -12.999,3.51 -1.463,0 -2.924,-0.154 -4.386,-0.459 C 13.411,48.999 12.108,48.5 10.965,47.81 9.822,47.117 8.892,46.228 8.175,45.138 7.457,44.047 7.097,42.719 7.097,41.15 c 0,-1.462 0.273,-2.725 0.818,-3.788 0.544,-1.063 1.349,-2.033 2.412,-2.91 1.063,-0.878 2.36,-1.728 3.888,-2.553 1.529,-0.824 3.29,-1.728 5.283,-2.712 2.047,-1.009 3.988,-2.072 5.822,-3.189 1.835,-1.116 3.442,-2.352 4.825,-3.708 1.382,-1.355 2.478,-2.858 3.29,-4.506 0.809,-1.648 1.216,-3.536 1.216,-5.662 0,-2.818 -0.552,-5.203 -1.655,-7.157 C 31.893,3.012 30.403,1.423 28.53,0.2 26.655,-1.023 24.495,-1.906 22.051,-2.452 19.604,-2.996 17.026,-3.27 14.315,-3.27 c -0.904,0 -2.021,0.075 -3.35,0.22 C 9.636,-2.903 8.28,-2.69 6.898,-2.412 5.516,-2.133 4.207,-1.788 2.971,-1.375 1.735,-0.964 0.744,-0.505 0,0"
             style="fill:#29307f;fill-opacity:1;fill-rule:nonzero;stroke:none"
             id="path184" />
        </g>
        <g
           id="g186"
           transform="translate(968.3105,834.3408)">
          <path
             d="m 0,0 h -16.509 v -51.118 h -6.698 V 0 H -39.675 V 6.061 H 0 Z"
             style="fill:#29307f;fill-opacity:1;fill-rule:nonzero;stroke:none"
             id="path188" />
        </g>
        <g
           id="g190"
           transform="translate(971.4998,782.3457)">
          <path
             d="m 0,0 c -1.223,0 -2.266,0.438 -3.13,1.316 -0.864,0.877 -1.296,1.927 -1.296,3.151 0,1.221 0.432,2.278 1.296,3.169 0.864,0.89 1.907,1.336 3.13,1.336 1.25,0 2.313,-0.446 3.19,-1.336 C 4.067,6.745 4.506,5.688 4.506,4.467 4.506,3.243 4.067,2.193 3.19,1.316 2.313,0.438 1.25,0 0,0"
             style="fill:#29307f;fill-opacity:1;fill-rule:nonzero;stroke:none"
             id="path192" />
        </g>
        <g
           id="g194"
           transform="translate(1031.5498,783.2227)">
          <path
             d="m 0,0 h -6.539 v 49.404 c -0.506,-0.505 -1.243,-1.084 -2.213,-1.734 -0.971,-0.652 -2.06,-1.296 -3.269,-1.935 -1.211,-0.637 -2.486,-1.236 -3.829,-1.794 -1.343,-0.558 -2.651,-0.997 -3.927,-1.315 v 6.619 c 1.435,0.399 2.956,0.937 4.565,1.614 1.608,0.678 3.191,1.436 4.745,2.273 1.555,0.838 3.024,1.715 4.406,2.632 1.382,0.917 2.578,1.814 3.589,2.691 H 0 Z"
             style="fill:#29307f;fill-opacity:1;fill-rule:nonzero;stroke:none"
             id="path196" />
        </g>
        <g
           id="g198"
           transform="translate(1068.2334,835.8174)">
          <path
             d="m 0,0 c -3.164,0 -5.801,-1.19 -7.914,-3.569 -2.114,-2.38 -3.17,-5.404 -3.17,-9.072 0,-4.014 1.037,-7.171 3.109,-9.47 2.074,-2.299 4.878,-3.45 8.413,-3.45 3.084,0 5.696,1.051 7.836,3.151 2.139,2.099 3.209,4.665 3.209,7.696 0,4.332 -1.062,7.868 -3.189,10.607 C 6.167,-1.37 3.403,0 0,0 m -14.673,-51.637 v 6.299 c 3.19,-1.808 6.565,-2.711 10.128,-2.711 5.183,0 9.217,2.086 12.101,6.26 2.884,4.174 4.326,10.102 4.326,17.784 -0.053,-0.027 -0.106,-0.027 -0.159,0 -2.446,-4.918 -6.699,-7.376 -12.759,-7.376 -4.892,0 -8.906,1.66 -12.043,4.984 -3.136,3.323 -4.704,7.602 -4.704,12.839 0,5.582 1.72,10.162 5.163,13.737 3.443,3.575 7.848,5.363 13.219,5.363 5.635,0 10.028,-2.228 13.178,-6.679 3.15,-4.453 4.724,-10.932 4.724,-19.439 0,-10.553 -2.046,-18.688 -6.14,-24.403 -4.093,-5.714 -9.782,-8.573 -17.066,-8.573 -3.827,0 -7.151,0.639 -9.968,1.915"
             style="fill:#29307f;fill-opacity:1;fill-rule:nonzero;stroke:none"
             id="path200" />
        </g>
        <g
           id="g202"
           transform="translate(1095.9458,785.3359)">
          <path
             d="M 0,0 V 7.059 C 3.908,3.974 8.32,2.433 13.238,2.433 c 3.987,0 7.171,0.997 9.55,2.991 2.379,1.993 3.568,4.678 3.568,8.054 0,7.469 -5.302,11.205 -15.909,11.205 H 5.702 v 5.542 h 4.506 c 9.436,0 14.155,3.509 14.155,10.526 0,6.486 -3.603,9.73 -10.805,9.73 -4.015,0 -7.803,-1.37 -11.365,-4.107 v 6.379 c 3.668,2.18 8.001,3.27 12.998,3.27 4.812,0 8.66,-1.276 11.545,-3.828 2.883,-2.551 4.326,-5.821 4.326,-9.809 0,-7.523 -3.828,-12.361 -11.484,-14.514 v -0.159 c 4.12,-0.399 7.396,-1.841 9.829,-4.326 2.432,-2.487 3.648,-5.59 3.648,-9.312 0,-5.13 -1.841,-9.269 -5.522,-12.42 C 23.851,-1.495 18.993,-3.07 12.959,-3.07 7.536,-3.07 3.216,-2.047 0,0"
             style="display:inline;fill:#29307f;fill-opacity:1;fill-rule:nonzero;stroke:none"
             id="path204" />
        </g>
        <g
           id="g206"
           transform="translate(1166.2432,827.3232)"
           style="display:inline">
          <path
             d="m 0,0 c 0,2.632 -0.824,4.705 -2.472,6.221 -1.649,1.514 -3.894,2.273 -6.739,2.273 -2.658,0 -4.911,-0.792 -6.758,-2.373 -1.848,-1.582 -2.772,-3.596 -2.772,-6.042 0,-4.971 3.097,-8.719 9.291,-11.244 C -3.15,-8.56 0,-4.839 0,0 m -9.888,-17.226 c -7.285,-2.897 -10.926,-7.097 -10.926,-12.599 0,-2.845 1.057,-5.178 3.17,-6.998 2.113,-1.822 4.898,-2.732 8.353,-2.732 3.296,0 5.987,0.898 8.075,2.693 2.086,1.794 3.13,4.059 3.13,6.798 0,5.741 -3.935,10.021 -11.802,12.838 m -5.264,3.111 v 0.16 c -6.858,3.189 -10.287,7.814 -10.287,13.876 0,4.119 1.567,7.502 4.705,10.147 3.136,2.645 7.177,3.968 12.121,3.968 4.466,0 8.134,-1.236 11.006,-3.709 2.87,-2.472 4.306,-5.648 4.306,-9.529 0,-6.326 -3.536,-11.245 -10.606,-14.753 v -0.16 c 8.346,-2.977 12.519,-8.134 12.519,-15.471 0,-4.732 -1.7,-8.493 -5.103,-11.284 -3.403,-2.791 -8.134,-4.188 -14.195,-4.188 -4.891,0 -8.919,1.382 -12.082,4.148 -3.164,2.764 -4.745,6.353 -4.745,10.765 0,7.337 4.12,12.68 12.361,16.03"
             style="display:inline;fill:#29307f;fill-opacity:1;fill-rule:nonzero;stroke:none"
             id="path208" />
        </g>
      </g>
    </g>
  </g>
  <g
     inkscape:groupmode="layer"
     id="layer1"
     inkscape:label="Layeradd" />
</svg>
