<?xml version="1.0" encoding="UTF-8" standalone="no"?>
<!-- Created with Inkscape (http://www.inkscape.org/) -->

<svg
   xmlns:dc="http://purl.org/dc/elements/1.1/"
   xmlns:cc="http://creativecommons.org/ns#"
   xmlns:rdf="http://www.w3.org/1999/02/22-rdf-syntax-ns#"
   xmlns:svg="http://www.w3.org/2000/svg"
   xmlns="http://www.w3.org/2000/svg"
   xmlns:sodipodi="http://sodipodi.sourceforge.net/DTD/sodipodi-0.dtd"
   xmlns:inkscape="http://www.inkscape.org/namespaces/inkscape"
   version="1.1"
   id="svg815"
   width="551"
   height="178"
   viewBox="0 0 551 178"
   sodipodi:docname="Thermolinear logo.svg"
   inkscape:version="0.92.2 (5c3e80d, 2017-08-06)"
   inkscape:export-filename="C:\Users\JBell\Desktop\Thermolinearbluebooklogo.png"
   inkscape:export-xdpi="96"
   inkscape:export-ydpi="96">
  <metadata
     id="metadata821">
    <rdf:RDF>
      <cc:Work
         rdf:about="">
        <dc:format>image/svg+xml</dc:format>
        <dc:type
           rdf:resource="http://purl.org/dc/dcmitype/StillImage" />
        <dc:title />
      </cc:Work>
    </rdf:RDF>
  </metadata>
  <defs
     id="defs819" />
  <sodipodi:namedview
     pagecolor="#ffffff"
     bordercolor="#666666"
     borderopacity="1"
     objecttolerance="10"
     gridtolerance="10"
     guidetolerance="10"
     inkscape:pageopacity="0"
     inkscape:pageshadow="2"
     inkscape:window-width="1920"
     inkscape:window-height="1017"
     id="namedview817"
     showgrid="false"
     inkscape:zoom="1.3067151"
     inkscape:cx="311.10019"
     inkscape:cy="126.68346"
     inkscape:window-x="-8"
     inkscape:window-y="-8"
     inkscape:window-maximized="1"
     inkscape:current-layer="layer1" />
  <g
     inkscape:groupmode="layer"
     id="layer1"
     inkscape:label="Layer 1"
     style="display:inline">
    <ellipse
       id="path825"
       cx="269.95169"
       cy="89.61042"
       rx="240.87119"
       ry="61.413544"
       style="stroke-width:1.71383417" />
    <ellipse
       id="path825-3"
       cx="269.95169"
       cy="89.61042"
       rx="251.77638"
       ry="72.510071"
       style="fill:none;stroke:#000000;stroke-width:5.68440945;stroke-opacity:1;stroke-miterlimit:4;stroke-dasharray:none" />
  </g>
  <g
     aria-label="THERMOLINEAR"
     transform="matrix(1.106669,0,0,0.90361254,4.5916666,-4.5916663)"
     style="font-style:normal;font-variant:normal;font-weight:normal;font-stretch:normal;font-size:63.80139923px;line-height:1.25;font-family:Impact;-inkscape-font-specification:Impact;letter-spacing:0px;word-spacing:0px;fill:#000000;fill-opacity:1;stroke:none;stroke-width:1.21700788;stroke-miterlimit:4;stroke-dasharray:none;stroke-opacity:1"
     id="text849">
    <path
       d="M 95.450452,79.032152 V 89.125733 H 87.662196 V 129.4689 H 74.546772 V 89.125733 H 66.789669 V 79.032152 Z"
       style="fill:#fd0000;fill-opacity:1;stroke:none;stroke-width:1.21700788;stroke-miterlimit:4;stroke-dasharray:none;stroke-opacity:1"
       id="path851"
       inkscape:connector-curvature="0" />
    <path
       d="M 126.79005,79.032152 V 129.4689 h -13.11542 v -21.18406 h -3.92529 V 129.4689 H 96.633917 V 79.032152 h 13.115423 v 18.037602 h 3.92529 V 79.032152 Z"
       style="fill:#fd0000;fill-opacity:1;stroke:none;stroke-width:1.21700788;stroke-miterlimit:4;stroke-dasharray:none;stroke-opacity:1"
       id="path853"
       inkscape:connector-curvature="0" />
    <path
       d="m 127.71779,79.032152 h 21.86942 v 10.093581 h -8.754 v 9.563979 h 8.19325 v 9.595128 h -8.19325 v 11.09048 h 9.62629 v 10.09358 h -22.74171 z"
       style="fill:#fd0000;fill-opacity:1;stroke:none;stroke-width:1.21700788;stroke-miterlimit:4;stroke-dasharray:none;stroke-opacity:1"
       id="path855"
       inkscape:connector-curvature="0" />
    <path
       d="m 151.33722,79.032152 h 9.2836 q 9.2836,0 12.55467,0.716519 3.30222,0.71652 5.35832,3.676058 2.08725,2.928384 2.08725,9.377061 0,5.887922 -1.46419,7.91287 -1.46419,2.02494 -5.76331,2.42993 3.89413,0.96575 5.23371,2.58571 1.33958,1.61995 1.65111,2.99069 0.34268,1.33958 0.34268,7.44557 v 13.30234 h -12.18083 v -16.76033 q 0,-4.04989 -0.65421,-5.01563 -0.62306,-0.96575 -3.33338,-0.96575 v 22.74171 h -13.11542 z m 13.11542,8.629388 v 11.21509 q 2.21187,0 3.08415,-0.591908 0.90344,-0.62306 0.90344,-3.956434 v -2.772619 q 0,-2.398783 -0.87229,-3.146456 -0.84113,-0.747673 -3.1153,-0.747673 z"
       style="fill:#fd0000;fill-opacity:1;stroke:none;stroke-width:1.21700788;stroke-miterlimit:4;stroke-dasharray:none;stroke-opacity:1"
       id="path857"
       inkscape:connector-curvature="0" />
    <path
       d="M 222.58348,79.032152 V 129.4689 H 211.11916 V 95.418644 l -4.57949,34.050256 h -8.13094 L 193.58001,96.19747 V 129.4689 H 182.11569 V 79.032152 h 16.9784 q 0.74768,4.548342 1.58881,10.716641 l 1.80687,12.835047 2.99069,-23.551688 z"
       style="fill:#fd0000;fill-opacity:1;stroke:none;stroke-width:1.21700788;stroke-miterlimit:4;stroke-dasharray:none;stroke-opacity:1"
       id="path859"
       inkscape:connector-curvature="0" />
    <path
       d="m 252.39587,108.56522 c 0,5.06756 -0.12461,8.66054 -0.37384,10.77895 -0.22845,2.09763 -0.97613,4.01874 -2.24302,5.76331 -1.24612,1.74457 -2.93877,3.08415 -5.07794,4.01874 -2.13917,0.93459 -4.63142,1.40189 -7.47673,1.40189 -2.69993,0 -5.12986,-0.43614 -7.28981,-1.30843 -2.13917,-0.89305 -3.86297,-2.22225 -5.1714,-3.98759 -1.30843,-1.76534 -2.08725,-3.68644 -2.33647,-5.76331 -0.24923,-2.07687 -0.37384,-5.71139 -0.37384,-10.90356 v -8.629387 c 0,-5.067559 0.11423,-8.650157 0.34268,-10.747794 0.24923,-2.118406 0.9969,-4.049894 2.24302,-5.794463 1.26689,-1.74457 2.96992,-3.08415 5.1091,-4.018741 2.13917,-0.934591 4.63141,-1.401886 7.47672,-1.401886 2.69993,0 5.11949,0.446527 7.25866,1.33958 2.15994,0.872285 3.89412,2.191096 5.20255,3.956434 1.30843,1.765339 2.08725,3.686442 2.33648,5.76331 0.24923,2.076869 0.37384,5.711389 0.37384,10.90356 z M 239.28044,94.205149 c 0,-2.346861 -0.135,-3.842207 -0.40499,-4.486036 -0.24922,-0.664598 -0.77882,-0.996897 -1.5888,-0.996897 -0.68537,0 -1.21497,0.269993 -1.58881,0.809979 -0.35307,0.519217 -0.5296,2.076869 -0.5296,4.672954 V 115.5435 c 0,2.92839 0.11423,2.52193 0.34269,3.20729 0.24922,0.68537 0.80997,1.02805 1.68226,1.02805 0.89305,0 1.46419,-0.3946 1.71342,-1.18382 0.24922,-0.7892 0.37383,-0.45543 0.37383,-3.42536 z"
       style="fill:#fd0000;fill-opacity:1;stroke:none;stroke-width:1.21700788;stroke-miterlimit:4;stroke-dasharray:none;stroke-opacity:1"
       id="path861"
       inkscape:connector-curvature="0"
       sodipodi:nodetypes="sccsscscssccsscssssscscsscscss" />
    <path
       d="m 265.01178,79.032152 v 40.343168 h 7.97517 v 10.09358 h -21.0906 V 79.032152 Z"
       style="fill:#fd0000;fill-opacity:1;stroke:none;stroke-width:1.21700788;stroke-miterlimit:4;stroke-dasharray:none;stroke-opacity:1"
       id="path863"
       inkscape:connector-curvature="0" />
    <path
       d="M 287.50391,79.032152 V 129.4689 H 274.38849 V 79.032152 Z"
       style="fill:#fd0000;fill-opacity:1;stroke:none;stroke-width:1.21700788;stroke-miterlimit:4;stroke-dasharray:none;stroke-opacity:1"
       id="path865"
       inkscape:connector-curvature="0" />
    <path
       d="M 318.50047,79.032152 V 129.4689 H 307.005 l -6.82251,-22.92862 V 129.4689 H 289.21662 V 79.032152 h 10.96587 l 7.35211,22.710558 V 79.032152 Z"
       style="fill:#fd0000;fill-opacity:1;stroke:none;stroke-width:1.21700788;stroke-miterlimit:4;stroke-dasharray:none;stroke-opacity:1"
       id="path867"
       inkscape:connector-curvature="0" />
    <path
       d="m 320.11971,79.032152 h 21.86942 v 10.093581 h -8.754 v 9.563979 h 8.19325 v 9.595128 h -8.19325 v 11.09048 h 9.62629 v 10.09358 h -22.74171 z"
       style="fill:#fd0000;fill-opacity:1;stroke:none;stroke-width:1.21700788;stroke-miterlimit:4;stroke-dasharray:none;stroke-opacity:1"
       id="path869"
       inkscape:connector-curvature="0" />
    <path
       d="m 365.69589,79.032152 7.50788,50.436748 h -13.42696 l -0.65421,-11.27887 h -4.70411 l -0.77882,11.27887 h -13.58272 l 6.66675,-50.436748 z m -6.94713,32.430298 c -0.66459,-5.71139 -1.32919,-12.762354 -1.99379,-21.152902 -1.32919,9.636668 -2.15994,16.687632 -2.49224,21.152902 z"
       style="fill:#fd0000;fill-opacity:1;stroke:none;stroke-width:1.21700788;stroke-miterlimit:4;stroke-dasharray:none;stroke-opacity:1"
       id="path871"
       inkscape:connector-curvature="0"
       sodipodi:nodetypes="ccccccccccccc" />
    <path
       d="m 371.83232,79.032152 h 9.2836 q 9.2836,0 12.55467,0.716519 3.30222,0.71652 5.35832,3.676058 2.08725,2.928384 2.08725,9.377061 0,5.887922 -1.46419,7.91287 -1.46419,2.02494 -5.76331,2.42993 3.89413,0.96575 5.23371,2.58571 1.33958,1.61995 1.65111,2.99069 0.34268,1.33958 0.34268,7.44557 v 13.30234 h -12.18083 v -16.76033 q 0,-4.04989 -0.65421,-5.01563 -0.62306,-0.96575 -3.33338,-0.96575 v 22.74171 h -13.11542 z m 13.11542,8.629388 v 11.21509 q 2.21187,0 3.08415,-0.591908 0.90344,-0.62306 0.90344,-3.956434 v -2.772619 q 0,-2.398783 -0.87229,-3.146456 -0.84113,-0.747673 -3.1153,-0.747673 z"
       style="fill:#fd0000;fill-opacity:1;stroke:none;stroke-width:1.21700788;stroke-miterlimit:4;stroke-dasharray:none;stroke-opacity:1"
       id="path873"
       inkscape:connector-curvature="0" />
    <rect
       style="fill:#000000;fill-opacity:1;stroke:none;stroke-width:1.14953411;stroke-miterlimit:4;stroke-dasharray:none;stroke-opacity:1"
       id="rect876"
       width="326.6813"
       height="4.2345457"
       x="74.511185"
       y="123.21986" />
    <text
       xml:space="preserve"
       style="font-style:normal;font-variant:normal;font-weight:normal;font-stretch:normal;font-size:12.10413265px;line-height:1.25;font-family:Impact;-inkscape-font-specification:Impact;letter-spacing:0px;word-spacing:0px;fill:#fd0000;fill-opacity:1;stroke:none;stroke-width:0.36827064"
       x="447.53876"
       y="115.54729"
       id="text880"
       transform="scale(0.90361255,1.106669)"><tspan
         sodipodi:role="line"
         id="tspan878"
         x="447.53876"
         y="115.54729"
         style="stroke-width:0.36827064">®</tspan></text>
  </g>
</svg>
